:SAMPLES-PER-SECOND 30
:FULLY-SPECIFIED
:DEGREES
248
root  49.569 33.9161 0.863612 -170.245 83.99 -155.51
RightUpLeg  -26.6337 -9.70227 0.764023
RightLeg  47.9896 2.43885 2.53594
RightFoot  -3.96321 0.355764 -5.88219
RightToes  -8.73116e-010 0 -3.6325e-017
Spine  21.7466 -4.68929 10.2311
Spine1  0.518152 -1.89307 -1.38523
HEad  -26.5623 3.20992 -2.5093
LeftShoulder1  0.219056 2.77509 -24.0627
LeftArm  -20.5731 -12.5942 -32.9272
LeftForeArm  105.569 -75.5628 -129.855
LeftHand  -0.1431 0.494686 3.34253
RightShoulder  -0.0202603 -3.56129 17.9006
RightArm  -27.3986 1.94664 38.8182
RightForeArm  109.964 68.1567 148.576
RightHand  -0.0955254 -0.163046 -2.13569
LeftUpLeg  -13.2815 1.83344 5.05229
LeftLeg  85.9014 -0.255365 -0.191837
LeftFoot  2.28636 -0.093962 0.59986
LeftToes  -5.63919e-011 3.32596e-011 1.92487e-011
249
root  50.8181 33.7211 1.06842 -163.072 84.9386 -148.121
RightUpLeg  -26.2564 -9.54539 1.65999
RightLeg  51.6357 2.26778 2.67852
RightFoot  -7.08026 0.195299 -6.50884
RightToes  -8.73116e-010 0 -3.6325e-017
Spine  19.4617 -3.16872 9.78376
Spine1  4.93446 -0.932982 -0.119801
HEad  -28.9835 1.10979 -4.09317
LeftShoulder1  0.486342 1.81682 -22.4066
LeftArm  -24.1087 -18.0325 -34.4028
LeftForeArm  101.99 -76.493 -125.12
LeftHand  -0.123648 0.249915 2.82613
RightShoulder  -0.0199855 -3.5738 15.1286
RightArm  -30.0237 7.81043 39.5436
RightForeArm  104.069 69.1249 146.402
RightHand  -0.246839 -0.619971 -5.94562
LeftUpLeg  -19.3841 3.40093 5.08925
LeftLeg  88.2958 -0.261938 -3.87961
LeftFoot  -0.506192 0.072535 -0.757843
LeftToes  -5.63919e-011 3.32596e-011 1.92487e-011
250
root  52.0328 33.635 1.21573 -153.661 85.5576 -138.862
RightUpLeg  -25.485 -8.93904 2.43424
RightLeg  54.0731 1.99508 2.53861
RightFoot  -10.2096 -0.000111748 -6.89709
RightToes  -8.73116e-010 0 -3.6325e-017
Spine  18.4784 -2.29268 9.65513
Spine1  6.64859 -0.386204 0.294356
HEad  -26.8156 -3.97849 -7.62312
LeftShoulder1  0.567267 1.47842 -21.5853
LeftArm  -26.6761 -20.4295 -35.362
LeftForeArm  102.766 -76.4014 -125.708
LeftHand  -0.161741 -1.41867 2.9354
RightShoulder  -0.0504763 -3.72575 13.6537
RightArm  -32.225 11.9801 39.7026
RightForeArm  100.763 69.3506 145.665
RightHand  -0.327193 -0.456388 -7.716
LeftUpLeg  -24.5753 3.81814 4.77849
LeftLeg  86.249 -0.498898 -7.08993
LeftFoot  -3.62703 0.12366 -1.43649
LeftToes  -5.63919e-011 3.32596e-011 1.92487e-011
251
root  53.1952 33.7229 1.33633 -151.373 86.6201 -136.556
RightUpLeg  -23.7355 -7.87504 2.21337
RightLeg  55.1267 1.75225 2.27109
RightFoot  -13.2046 -0.207379 -7.20995
RightToes  -8.73116e-010 0 -3.6325e-017
Spine  18.932 -1.92712 9.05529
Spine1  6.08158 0.00407184 -0.923333
HEad  -25.0351 -9.94208 -11.3836
LeftShoulder1  0.517403 1.61546 -20.9937
LeftArm  -28.8216 -21.4364 -35.1207
LeftForeArm  104.453 -75.6229 -129.395
LeftHand  -0.142173 0.752257 3.45091
RightShoulder  -0.0440951 -3.69814 13.1928
RightArm  -33.8785 15.0914 39.3807
RightForeArm  99.9576 69.293 145.692
RightHand  -0.316407 -0.957661 -8.21678
LeftUpLeg  -27.7486 3.35935 3.78972
LeftLeg  79.6754 -1.3883 -7.85952
LeftFoot  -5.98316 0.0692984 -0.747491
LeftToes  -5.63919e-011 3.32596e-011 1.92487e-011
252
root  54.2659 33.8766 1.42713 -149.285 86.7572 -134.668
RightUpLeg  -21.8495 -7.51363 2.3825
RightLeg  55.2151 1.43538 1.79125
RightFoot  -15.617 -0.384623 -7.49827
RightToes  -8.73116e-010 0 -3.6325e-017
Spine  23.724 -2.31971 9.04199
Spine1  -2.28304 -0.180296 -2.13465
HEad  -23.516 -16.6118 -16.605
LeftShoulder1  0.444614 1.91126 -21.4454
LeftArm  -29.3432 -21.0622 -32.0224
LeftForeArm  106.282 -74.7525 -133.023
LeftHand  -0.188787 0.0894222 4.15953
RightShoulder  0.00748549 -3.44533 12.8478
RightArm  -34.5645 15.5484 37.6093
RightForeArm  98.7332 69.0918 145.947
RightHand  -0.250211 -1.71837 -7.71492
LeftUpLeg  -29.5549 1.5216 3.67652
LeftLeg  70.0171 -2.57295 -6.99265
LeftFoot  -7.1065 0.0840247 -1.12551
LeftToes  -5.63919e-011 3.32596e-011 1.92487e-011
253
root  55.2281 34.1275 1.48952 -147.499 85.7702 -133.122
RightUpLeg  -19.6466 -7.54824 3.14835
RightLeg  54.2573 0.96587 1.02305
RightFoot  -17.2369 -0.482726 -7.10913
RightToes  -8.73116e-010 0 -3.6325e-017
Spine  26.5134 -2.94288 9.69638
Spine1  -8.10011 -0.596925 -3.63295
HEad  -25.1452 -22.1186 -20.6795
LeftShoulder1  0.39902 1.9649 -19.3726
LeftArm  -30.4285 -22.6208 -30.3033
LeftForeArm  101.527 -75.3051 -130.088
LeftHand  -0.190042 -1.59309 3.41216
RightShoulder  -0.00209106 -3.49343 13.5187
RightArm  -35.8523 17.6019 34.2675
RightForeArm  95.0574 69.6939 144.494
RightHand  -0.24525 -1.86502 -8.01194
LeftUpLeg  -29.7855 -1.62665 4.66896
LeftLeg  58.1642 -4.90308 -7.80783
LeftFoot  -6.6538 0.126098 -2.04055
LeftToes  -5.63919e-011 3.32596e-011 1.92487e-011
254
root  56.1727 34.4367 1.49892 -143.806 85.5191 -129.65
RightUpLeg  -17.2778 -6.68284 3.65022
RightLeg  52.858 0.483318 0.280351
RightFoot  -18.5146 -0.549361 -6.75115
RightToes  -8.73116e-010 0 -3.6325e-017
Spine  24.2817 -2.37702 9.63623
Spine1  -5.54589 -0.209111 -3.48606
HEad  -27.6994 -26.4524 -23.0237
LeftShoulder1  0.501082 1.35218 -16.8154
LeftArm  -34.0486 -27.1152 -28.7245
LeftForeArm  91.0574 -76.7061 -121.247
LeftHand  -0.127029 -3.41207 1.85861
RightShoulder  -0.0115285 -3.54538 11.1897
RightArm  -39.354 21.3842 31.9544
RightForeArm  88.1841 71.4942 139.829
RightHand  -0.226226 -2.95346 -10.1468
LeftUpLeg  -28.4804 -4.85558 5.62839
LeftLeg  46.518 -8.3065 -8.95349
LeftFoot  -4.40483 0.202482 -2.98124
LeftToes  -5.63919e-011 3.32596e-011 1.92487e-011
255
root  57.0566 34.8413 1.47256 -142.465 85.6873 -128.573
RightUpLeg  -14.7154 -6.07871 3.64655
RightLeg  50.6929 0.174143 -0.148935
RightFoot  -19.388 -0.597284 -6.62767
RightToes  -8.73116e-010 0 -3.6325e-017
Spine  22.8953 -2.24188 9.60282
Spine1  -4.29386 0.0309777 -4.81082
HEad  -29.2472 -28.0211 -23.889
LeftShoulder1  0.549434 0.691677 -12.1213
LeftArm  -39.4149 -32.5833 -25.518
LeftForeArm  71.4117 -78.1982 -103.91
LeftHand  -0.0494412 -2.4007 0.870285
RightShoulder  0.0161123 -3.3461 8.7856
RightArm  -42.7509 25.0162 29.294
RightForeArm  73.0657 74.6313 128.738
RightHand  -0.172276 -3.55473 -10.3041
LeftUpLeg  -26.7581 -8.16112 6.0139
LeftLeg  38.3209 -9.81245 -7.87953
LeftFoot  -0.656729 0.264715 -2.73747
LeftToes  -5.63919e-011 3.32596e-011 1.92487e-011
256
root  57.9234 35.1766 1.41332 -142.021 85.8171 -128.857
RightUpLeg  -12.8538 -5.43322 3.5463
RightLeg  48.7776 -0.0871812 -0.469191
RightFoot  -20.3857 -0.62781 -6.18581
RightToes  -8.73116e-010 0 -3.6325e-017
Spine  22.7008 -1.94971 7.46555
Spine1  -5.97786 -0.40763 -3.21888
HEad  -28.534 -26.7385 -24.0795
LeftShoulder1  0.44482 0.651382 -8.36694
LeftArm  -44.5662 -35.6721 -20.6728
LeftForeArm  45.5544 -78.2078 -80.7892
LeftHand  0.128039 -4.49083 -1.20341
RightShoulder  -0.0970309 -4.47475 6.07754
RightArm  -44.6399 32.7786 25.2317
RightForeArm  38.9778 77.2076 96.4837
RightHand  -1.21736 -6.10502 -10.7287
LeftUpLeg  -25.8948 -8.71777 5.90032
LeftLeg  35.9878 -9.93598 -7.32227
LeftFoot  1.57288 0.283719 -2.58565
LeftToes  -5.63919e-011 3.32596e-011 1.92487e-011
257
root  58.7683 35.5483 1.31188 -129 86.4978 -117.044
RightUpLeg  -11.5031 -4.3705 3.42297
RightLeg  46.5608 0.162487 -0.152095
RightFoot  -20.828 -0.647771 -6.10391
RightToes  -8.73116e-010 0 -3.6325e-017
Spine  22.1099 -0.690709 -0.150522
Spine1  -9.22088 -1.25561 6.99868
HEad  -22.6854 -18.1185 -24.7174
LeftShoulder1  0.598109 -1.27857 -4.51467
LeftArm  -50.5534 -31.2208 -16.0354
LeftForeArm  15.0857 -75.4574 -52.8016
LeftHand  1.63294 -9.99909 -11.1047
RightShoulder  -0.90466 -10.4949 4.16883
RightArm  -50.511 53.9308 17.2901
RightForeArm  -15.9338 68.6884 34.3645
RightHand  12.0069 18.7618 21.9961
LeftUpLeg  -25.0912 -7.55911 5.59214
LeftLeg  35.2914 -8.86246 -6.34206
LeftFoot  1.3856 -0.0328087 0.219403
LeftToes  -5.63919e-011 3.32596e-011 1.92487e-011
258
root  59.5664 36.0467 1.16532 -100.978 87.4308 -90.6382
RightUpLeg  -10.3902 -2.46698 3.08056
RightLeg  43.4626 0.306669 0.00136917
RightFoot  -20.4805 -0.622092 -6.04231
RightToes  -8.73116e-010 0 -3.6325e-017
Spine  26.4286 1.73148 -17.3656
Spine1  -20.0358 -2.28996 30.8619
HEad  -18.5076 -3.64637 -28.156
LeftShoulder1  0.396297 -1.60086 0.796209
LeftArm  -52.3941 -17.4558 -16.5053
LeftForeArm  -2.24108 -71.407 -38.4014
LeftHand  3.86262 -13.7092 -22.1602
RightShoulder  -1.90996 -14.2875 10.3677
RightArm  -62.7538 77.6919 3.35487
RightForeArm  -41.7375 50.7855 15.5229
RightHand  92.3157 69.0308 114.1
LeftUpLeg  -23.8291 -5.82229 5.25767
LeftLeg  32.8241 -8.60195 -5.59479
LeftFoot  1.83153 -0.0228623 0.100686
LeftToes  -5.63919e-011 3.32596e-011 1.92487e-011
